<svg width="1400" height="920" viewBox="0 0 1400 920" fill="none" xmlns="http://www.w3.org/2000/svg">
  <rect width="1400" height="920" fill="#f5f7f2"/>
  <rect x="64" y="52" width="1272" height="816" rx="16" fill="#ffffff" stroke="#d9e0d8"/>

  <text x="104" y="104" fill="#7a8490" font-family="Maple Mono NF CN, ui-monospace, monospace" font-size="20" font-weight="700">CLIPROXYAPI · CODEX OAUTH POOL</text>
  <text x="104" y="154" fill="#17212d" font-family="Maple Mono NF CN, ui-monospace, monospace" font-size="46" font-weight="800">Codex Quota</text>
  <rect x="1180" y="74" width="116" height="36" rx="8" fill="#f9faf7" stroke="#d9e0d8"/>
  <circle cx="1210" cy="92" r="9" fill="#5d6975"/>
  <path d="M1210 83a9 9 0 0 1 0 18z" fill="#f9faf7"/>
  <text x="1264" y="99" fill="#5d6975" font-family="Maple Mono NF CN, ui-monospace, monospace" font-size="15" font-weight="800" text-anchor="end">Dark</text>
  <text x="1296" y="128" fill="#5d6975" font-family="Maple Mono NF CN, ui-monospace, monospace" font-size="22" text-anchor="end">Quota-first status for desktop, mobile, and small-screen browsers.</text>

  <rect x="104" y="194" width="370" height="112" rx="10" fill="#e6f3ea" stroke="#d9e0d8"/>
  <rect x="104" y="194" width="8" height="112" rx="4" fill="#2d6d50"/>
  <text x="132" y="232" fill="#5d6975" font-family="Maple Mono NF CN, ui-monospace, monospace" font-size="18" font-weight="800">5H</text>
  <text x="132" y="278" fill="#17212d" font-family="Maple Mono NF CN, ui-monospace, monospace" font-size="38" font-weight="800">5h 6.80 Plus</text>

  <rect x="492" y="194" width="370" height="112" rx="10" fill="#e6f3ea" stroke="#d9e0d8"/>
  <rect x="492" y="194" width="8" height="112" rx="4" fill="#2d6d50"/>
  <text x="520" y="232" fill="#5d6975" font-family="Maple Mono NF CN, ui-monospace, monospace" font-size="18" font-weight="800">WEEKLY</text>
  <text x="520" y="278" fill="#17212d" font-family="Maple Mono NF CN, ui-monospace, monospace" font-size="38" font-weight="800">Weekly 7.42 Plus</text>

  <rect x="880" y="194" width="416" height="31" rx="8" fill="#e6f3ea" stroke="#d9e0d8"/>
  <rect x="880" y="194" width="7" height="31" rx="3.5" fill="#2d6d50"/>
  <text x="904" y="215" fill="#5d6975" font-family="Maple Mono NF CN, ui-monospace, monospace" font-size="14" font-weight="800">ALERTS</text>
  <text x="1272" y="215" fill="#17212d" font-family="Maple Mono NF CN, ui-monospace, monospace" font-size="15" font-weight="800" text-anchor="end">Clean</text>
  <rect x="880" y="235" width="416" height="31" rx="8" fill="#f9faf7" stroke="#d9e0d8"/>
  <rect x="880" y="235" width="7" height="31" rx="3.5" fill="#2d6d50"/>
  <text x="904" y="256" fill="#5d6975" font-family="Maple Mono NF CN, ui-monospace, monospace" font-size="14" font-weight="800">GATEWAY</text>
  <text x="1272" y="256" fill="#17212d" font-family="Maple Mono NF CN, ui-monospace, monospace" font-size="15" font-weight="800" text-anchor="end">Gateway OK</text>
  <rect x="880" y="275" width="416" height="31" rx="8" fill="#edf0f3" stroke="#d9e0d8"/>
  <rect x="880" y="275" width="7" height="31" rx="3.5" fill="#647184"/>
  <text x="904" y="296" fill="#5d6975" font-family="Maple Mono NF CN, ui-monospace, monospace" font-size="14" font-weight="800">FAST</text>
  <text x="1272" y="296" fill="#17212d" font-family="Maple Mono NF CN, ui-monospace, monospace" font-size="15" font-weight="800" text-anchor="end">Fast Off</text>

  <text x="104" y="346" fill="#5d6975" font-family="Maple Mono NF CN, ui-monospace, monospace" font-size="20">Round Robin + Sticky · 9,508 req · 1.01B tok</text>

  <rect x="104" y="374" width="1192" height="70" rx="10" fill="#ffffff" stroke="#d9e0d8"/>
  <rect x="104" y="374" width="8" height="70" rx="4" fill="#2d6d50"/>
  <text x="130" y="404" fill="#7a8490" font-family="Maple Mono NF CN, ui-monospace, monospace" font-size="16" font-weight="800">STATUS</text>
  <text x="130" y="431" fill="#17212d" font-family="Maple Mono NF CN, ui-monospace, monospace" font-size="24" font-weight="800">Live via CLIProxyAPI + direct Codex quota</text>
  <text x="1268" y="416" fill="#5d6975" font-family="Maple Mono NF CN, ui-monospace, monospace" font-size="18" text-anchor="end">2026-04-27 20:35</text>

  <rect x="104" y="470" width="280" height="50" rx="8" fill="#285f8f"/>
  <text x="244" y="502" fill="#ffffff" font-family="Maple Mono NF CN, ui-monospace, monospace" font-size="20" font-weight="800" text-anchor="middle">Pool</text>
  <rect x="404" y="470" width="280" height="50" rx="8" fill="#ffffff" stroke="#d9e0d8"/>
  <text x="544" y="502" fill="#5d6975" font-family="Maple Mono NF CN, ui-monospace, monospace" font-size="20" font-weight="800" text-anchor="middle">Resets</text>
  <rect x="704" y="470" width="280" height="50" rx="8" fill="#ffffff" stroke="#d9e0d8"/>
  <text x="844" y="502" fill="#5d6975" font-family="Maple Mono NF CN, ui-monospace, monospace" font-size="20" font-weight="800" text-anchor="middle">Usage</text>
  <rect x="1004" y="470" width="292" height="50" rx="8" fill="#ffffff" stroke="#d9e0d8"/>
  <text x="1150" y="502" fill="#5d6975" font-family="Maple Mono NF CN, ui-monospace, monospace" font-size="20" font-weight="800" text-anchor="middle">Alerts</text>

  <rect x="104" y="546" width="1192" height="270" rx="10" fill="#ffffff" stroke="#d9e0d8"/>
  <text x="130" y="582" fill="#7a8490" font-family="Maple Mono NF CN, ui-monospace, monospace" font-size="16" font-weight="800">POOL</text>
  <text x="130" y="616" fill="#17212d" font-family="Maple Mono NF CN, ui-monospace, monospace" font-size="30" font-weight="800">Pool Capacity</text>
  <text x="130" y="646" fill="#5d6975" font-family="Maple Mono NF CN, ui-monospace, monospace" font-size="18">6 Plus · 2 Non-Plus · 8 healthy · 0 issues</text>

  <rect x="130" y="674" width="555" height="58" rx="8" fill="#f9faf7" stroke="#d9e0d8"/>
  <rect x="130" y="674" width="6" height="58" rx="3" fill="#95631b"/>
  <text x="154" y="707" fill="#17212d" font-family="Maple Mono NF CN, ui-monospace, monospace" font-size="16" font-weight="800">plus-slot-a</text>
  <text x="534" y="707" fill="#5d6975" font-family="Maple Mono NF CN, ui-monospace, monospace" font-size="14" font-weight="800">Plus</text>
  <rect x="590" y="688" width="76" height="24" rx="12" fill="#f8edda" stroke="#d9e0d8"/>
  <text x="628" y="705" fill="#95631b" font-family="Maple Mono NF CN, ui-monospace, monospace" font-size="12" font-weight="800" text-anchor="middle">Reset</text>

  <rect x="704" y="674" width="258" height="58" rx="8" fill="#ffffff" stroke="#d9e0d8"/>
  <text x="724" y="697" fill="#5d6975" font-family="Maple Mono NF CN, ui-monospace, monospace" font-size="12" font-weight="800">5H</text>
  <text x="936" y="697" fill="#17212d" font-family="Maple Mono NF CN, ui-monospace, monospace" font-size="15" font-weight="800" text-anchor="end">0%</text>
  <rect x="724" y="707" width="218" height="9" rx="4.5" fill="#eef2ee" stroke="#d9e0d8"/>
  <text x="724" y="727" fill="#7a8490" font-family="Maple Mono NF CN, ui-monospace, monospace" font-size="11" font-weight="800">1h 0min / 04-27 21:35</text>

  <rect x="982" y="674" width="258" height="58" rx="8" fill="#ffffff" stroke="#d9e0d8"/>
  <text x="1002" y="697" fill="#5d6975" font-family="Maple Mono NF CN, ui-monospace, monospace" font-size="12" font-weight="800">WEEKLY</text>
  <text x="1214" y="697" fill="#17212d" font-family="Maple Mono NF CN, ui-monospace, monospace" font-size="15" font-weight="800" text-anchor="end">42%</text>
  <rect x="1002" y="707" width="218" height="9" rx="4.5" fill="#eef2ee" stroke="#d9e0d8"/>
  <rect x="1002" y="707" width="92" height="9" rx="4.5" fill="#2d6d50"/>
  <text x="1002" y="727" fill="#7a8490" font-family="Maple Mono NF CN, ui-monospace, monospace" font-size="11" font-weight="800">1d 18h / 04-29 14:41</text>

  <rect x="130" y="750" width="535" height="14" rx="7" fill="#eef2ee"/>
  <rect x="130" y="750" width="210" height="14" rx="7" fill="#2d6d50"/>
  <text x="690" y="764" fill="#5d6975" font-family="Maple Mono NF CN, ui-monospace, monospace" font-size="16">5h Known 6.80 Plus · Exhausted 7 · Weekly-capped 6</text>
  <rect x="130" y="782" width="535" height="14" rx="7" fill="#eef2ee"/>
  <rect x="130" y="782" width="236" height="14" rx="7" fill="#2d6d50"/>
  <text x="690" y="796" fill="#5d6975" font-family="Maple Mono NF CN, ui-monospace, monospace" font-size="16">Weekly Known 7.42 Plus · Exhausted 6</text>
</svg>
